STARTFONT 2.1
FONT vxms-37
SIZE 35 75 75
FONTBOUNDINGBOX 44 37 0 -9

STARTPROPERTIES 10
COPYRIGHT "Public domain font.  Share and enjoy."
POINT_SIZE 350
WEIGHT 10
RESOLUTION_X 75
RESOLUTION_Y 75
X_HEIGHT 28
QUAD_WIDTH 24
DEFAULT_CHAR 0
FONT_DESCENT 9
FONT_ASCENT 28
ENDPROPERTIES

CHARS 67

STARTCHAR C040
ENCODING 32
SWIDTH 457 0
DWIDTH 16 0
BBX 16 37 0 -9
BITMAP
0000
0000
0000
0000
0000
0000
0000
0000
0000
0000
0000
0000
0000
0000
0000
0000
0000
0000
0000
0000
0000
0000
0000
0000
0000
0000
0000
0000
0000
0000
0000
0000
0000
0000
0000
0000
0000
ENDCHAR

STARTCHAR ,
ENCODING 44
SWIDTH 400 0
DWIDTH 14 0
BBX 14 37 0 -9
BITMAP
0000
0000
0000
0000
0000
0000
0000
0000
0000
0000
0000
0000
0000
0000
0000
0000
0000
0000
0000
0000
0000
0000
0000
1C00
3E00
7F80
FF00
3E00
1C00
3800
7000
0000
0000
0000
0000
0000
0000
ENDCHAR

STARTCHAR .
ENCODING 46
SWIDTH 400 0
DWIDTH 14 0
BBX 14 37 0 -9
BITMAP
0000
0000
0000
0000
0000
0000
0000
0000
0000
0000
0000
0000
0000
0000
0000
0000
0000
0000
0000
0000
0000
0000
0800
1C00
3E00
7F80
FF00
3E00
1C00
0000
0000
0000
0000
0000
0000
0000
0000
ENDCHAR

STARTCHAR 0
ENCODING 48
SWIDTH 714 0
DWIDTH 25 0
BBX 25 37 0 -9
BITMAP
00000000
00000000
00000000
00000000
00000000
00700000
00F80000
070E0000
FF07C000
7F07F000
7E07F000
7E07F000
7E07F000
7E07F000
7E07F000
7E07F000
7E07F000
7E07F000
7E07F000
7E07E000
7E07E000
7E07E000
FE07E000
FE07E000
3E0FF000
070FC000
01F00000
00C00000
00000000
00000000
00000000
00000000
00000000
00000000
00000000
00000000
00000000
ENDCHAR

STARTCHAR 1
ENCODING 49
SWIDTH 542 0
DWIDTH 19 0
BBX 19 37 0 -9
BITMAP
000000
000000
000000
000000
F0C000
F1C000
F3F000
FFFE00
7FFE00
07F800
07F800
07F800
07F800
07F800
07F800
07F800
07F800
07F800
07F800
07F800
07F800
07F800
07F800
07F800
0FF800
1FFC00
0FF800
01C000
008000
000000
000000
000000
000000
000000
000000
000000
000000
ENDCHAR

STARTCHAR 2
ENCODING 50
SWIDTH 685 0
DWIDTH 24 0
BBX 24 37 0 -9
BITMAP
000000
000000
000000
000000
00C000
01E000
073800
7E3FC0
7E1FC0
7E1FC0
7E1FC0
7E1FC0
7E1FC0
401FC0
003FC0
007FC0
00FFC0
03E000
078000
0E0200
180200
303F00
33FF80
6FFFC0
7FFFE0
FFFFC0
FF3F00
C00700
000000
000000
000000
000000
000000
000000
000000
000000
000000
ENDCHAR

STARTCHAR 3
ENCODING 51
SWIDTH 714 0
DWIDTH 25 0
BBX 25 37 0 -9
BITMAP
00000000
00000000
00000000
00000000
00E00000
01F00000
073E0000
FE1FF000
FE1FE000
FC1FE000
FC1FE000
FC0FE000
FC0FE000
000FE000
001FE000
00380000
03F00000
001FE000
001FF000
000FE000
C00FE000
FC0FE000
FC0FE000
FC0FE000
FC0FF000
FE1FF000
07F80000
01E00000
00000000
00000000
00000000
00000000
00000000
00000000
00000000
00000000
00000000
ENDCHAR

STARTCHAR 4
ENCODING 52
SWIDTH 714 0
DWIDTH 25 0
BBX 25 37 0 -9
BITMAP
00000000
00000000
00000000
00000000
00000000
00000000
007F8000
007F0000
007E0000
00FC0000
00F80000
01F00000
01E00000
03C00000
078E0000
071F0000
0E7FC000
1C7F8000
383F8000
303F8000
603F8000
FFFFE000
FFFFC000
003F8000
007FC000
00FFE000
001E0000
000C0000
00000000
00000000
00000000
00000000
00000000
00000000
00000000
00000000
00000000
ENDCHAR

STARTCHAR 5
ENCODING 53
SWIDTH 714 0
DWIDTH 25 0
BBX 25 37 0 -9
BITMAP
00000000
00000000
00000000
00000000
000F0000
7FFF0000
7FFC0000
7FFC0000
7FF80000
7FF80000
78000000
60000000
60000000
67E00000
6E3C0000
781FC000
601FE000
600FE000
400FE000
000FE000
F80FE000
F80FE000
F80FE000
F80FE000
FC0FE000
1E1E0000
07380000
01E00000
00000000
00000000
00000000
00000000
00000000
00000000
00000000
00000000
00000000
ENDCHAR

STARTCHAR 6
ENCODING 54
SWIDTH 742 0
DWIDTH 26 0
BBX 26 37 0 -9
BITMAP
00000000
00000000
00000000
00000000
00000000
00700000
00F80000
038F0000
3F07E000
FF07E000
FF07E000
7F07E000
7F000000
7F380000
7F3E0000
7F878000
7F07F800
7F03F800
7F03F800
7E03F800
7E03F800
7E03F800
7E03F800
FE03F800
7F03E000
03070000
00FC0000
00300000
00000000
00000000
00000000
00000000
00000000
00000000
00000000
00000000
00000000
ENDCHAR

STARTCHAR 7
ENCODING 55
SWIDTH 685 0
DWIDTH 24 0
BBX 24 37 0 -9
BITMAP
000000
000000
000000
000000
000000
100060
3FFFE0
3FFFE0
FFFFC0
FFFF80
7FFF80
7C0180
380300
300200
200600
000E00
000C00
001C00
003C00
007C00
00F800
01F800
03F800
0FF800
1FFC00
1FF800
07C000
018000
000000
000000
000000
000000
000000
000000
000000
000000
000000
ENDCHAR

STARTCHAR 8
ENCODING 56
SWIDTH 742 0
DWIDTH 26 0
BBX 26 37 0 -9
BITMAP
00000000
00000000
00000000
00000000
00000000
00E00000
01FC0000
0707E000
FF03F000
7F01F000
7F01F000
7F81F000
7FE1F000
7FFF8000
7FFE0000
0FFF0000
03FFC000
06FFF000
FC3FF800
FC1FF800
7C07F800
7C03F800
7C03F800
7C03F800
FE03F800
1F070000
01F00000
00700000
00000000
00000000
00000000
00000000
00000000
00000000
00000000
00000000
00000000
ENDCHAR

STARTCHAR 9
ENCODING 57
SWIDTH 742 0
DWIDTH 26 0
BBX 26 37 0 -9
BITMAP
00000000
00000000
00000000
00000000
00000000
00000000
00780000
01FC0000
0F0F0000
FF07F800
FE07F000
FE07F000
FE07F000
FE07F000
FE07F000
FE07F000
FE07F000
FE0FF000
3FFFF000
03E7F000
3007F000
3C07F000
3E07F000
3E07F000
7E07F800
7E07F800
030F0000
01E00000
00000000
00000000
00000000
00000000
00000000
00000000
00000000
00000000
00000000
ENDCHAR

STARTCHAR :
ENCODING 58
SWIDTH 428 0
DWIDTH 15 0
BBX 15 37 0 -9
BITMAP
0000
0000
0000
0000
0000
0000
0000
0000
0000
0000
0800
1C00
3E00
7F80
FF00
3E00
1C00
0000
0000
0000
0000
0000
0800
1C00
3E00
7F80
FF00
3E00
1C00
0000
0000
0000
0000
0000
0000
0000
0000
ENDCHAR

STARTCHAR ;
ENCODING 59
SWIDTH 428 0
DWIDTH 15 0
BBX 15 37 0 -9
BITMAP
0000
0000
0000
0000
0000
0000
0000
0000
0000
0000
0000
1C00
3E00
7F80
FF00
3E00
1C00
0000
0000
0000
0000
0000
0000
1C00
3E00
7F80
FF00
3E00
1C00
3800
7000
0000
0000
0000
0000
0000
0000
ENDCHAR

STARTCHAR A
ENCODING 65
SWIDTH 1057 0
DWIDTH 37 0
BBX 37 37 0 -9
BITMAP
0000000000
01F0000000
03FE038000
0FFF8F0000
0FFFDE0000
1E3FFC0000
1C1FFC0000
380FFC0000
398FFC0000
3BCFFC0000
3BCDFE0000
3BCDFE0000
3BD8FE0000
19D8FF0000
1FD87F0000
0FB07F0000
00307F8000
007FFF8000
007FFFC000
0063BFE000
00E39FE000
01E39FF000
01E31FF800
07E31FFC00
1FF33FFF00
7FFB7FFF80
FFFB03F800
0FE301E000
038300C000
0103400000
0003E00000
0003F00000
0001F00000
0000E00000
0000000000
0000000000
0000000000
ENDCHAR

STARTCHAR B
ENCODING 66
SWIDTH 1028 0
DWIDTH 36 0
BBX 36 37 0 -9
BITMAP
0000000000
0000000000
7C00780000
FC03FE0000
FC1FC7E000
FFFE43F800
7FFE41FC00
01FE41FE00
01FE41FE00
01FE41FE00
01FE41FE00
1FFE41FE00
1FFE43FC00
1FFC7FF000
1FFC7F8000
3FFC47E000
11FC43F800
01FC43FC00
01FC43FC00
01FC43FC00
01FCC3FC00
01FFC3FC00
03FFC3FC00
0FFFE3F800
1FFFF3FC00
3FFFFFEE00
703FFE0700
E007F00000
8001C00000
0001C00000
0001F00000
0001F80000
0000F80000
0000000000
0000000000
0000000000
0000000000
ENDCHAR

STARTCHAR C
ENCODING 67
SWIDTH 942 0
DWIDTH 33 0
BBX 33 37 0 -9
BITMAP
00000C0000
000C3F8000
007867F800
01F1C7F000
03E7C7C000
07EFC78000
0FFFC70000
1FCFC70000
3F8FC70000
3F8FC70000
7F8FC70000
7F0FC70000
7F0FC70000
FF0FC60000
FF0FC60000
FF0FC60000
FF0FC60000
FF0FC61000
FF0FC61800
FF0FC63000
7F8FC63000
7F8FC66000
3F8E06C000
1FF8078000
0FF0070000
07F0060000
03FFFE0000
00FFEE0000
00000F8000
00000FE000
00000FE000
000007E000
0000000000
0000000000
0000000000
0000000000
0000000000
ENDCHAR

STARTCHAR D
ENCODING 68
SWIDTH 1028 0
DWIDTH 36 0
BBX 36 37 0 -9
BITMAP
0000000000
0000000000
1800060000
FC01FFE000
FC0FE3F800
FFFE61FC00
7FFE61FE00
0BFE61FE00
09FE61FE00
09FE61FE00
09FE61FE00
0FFE61FE00
1FFE61FE00
1FFE7FFE00
1FFE63FE00
3FFE61FE00
33FE61FE00
33FE61FE00
03FE61FE00
03FE61FE00
03FE61FE00
03FFE1FE00
03FFE1FE00
03FFF1FE00
07FFFFFE00
1FFFFFFF00
3E1FFF0000
7807F80000
6001E00000
0000D80000
0000D80000
0000FC0000
00007C0000
0000380000
0000000000
0000000000
0000000000
ENDCHAR

STARTCHAR E
ENCODING 69
SWIDTH 1028 0
DWIDTH 36 0
BBX 36 37 0 -9
BITMAP
0000000000
0000000000
0000000000
7001FE0000
F81F9FC000
F0FD87F000
FFF983FE00
7FF981FC00
27F9B1F000
27F9B1E000
27F9B0C000
37F9B00000
3FF9F80000
3FFFF80000
3FFFFC0000
3FFFFE0000
7FF9FE0000
67F9F00000
47F9F06000
47F9F06000
47F9A06000
47F1A0E000
47F1A0E000
4FF1A1F000
7FFFA7F800
7FFFFFFE00
07F39FFF00
03C381E000
0183804000
0003E00000
0003F00000
0003700000
0001F00000
0000E00000
0000000000
0000000000
0000000000
ENDCHAR

STARTCHAR F
ENCODING 70
SWIDTH 971 0
DWIDTH 34 0
BBX 34 37 0 -9
BITMAP
0000000000
0000000000
0000000000
7001FF0000
F81FFFE200
F8FDCFFE00
FFF9C3FC00
FFF9C3F800
17F9C1F000
17F9F1E000
17F9F1C000
17F9F00000
3FF9F80000
3FFFFC0000
3FFFFF0000
3FFFFF0000
3FF9FC0000
67F9F80000
67F9F00000
07F9B00000
07F9A00000
07F9800000
07F9800000
0FF9800000
1FFF800000
7FFF800000
7FF9800000
03C1800000
0181800000
0001B00000
0001F00000
0001F80000
0001F80000
0000F00000
0000000000
0000000000
0000000000
ENDCHAR

STARTCHAR G
ENCODING 71
SWIDTH 1000 0
DWIDTH 35 0
BBX 35 37 0 -9
BITMAP
0000000000
0000000000
0000000000
0000000000
00007F0000
0039FF8000
00F39FE000
03EF9FC000
07DF1E0000
0FFF1C0000
1FDF1C0000
3F1F1C3000
7F1F1C7000
7F1F1CF800
FF1FFFF800
FF1FFFFC00
FF1F1FFC00
FF1F1BFE00
FF1F19FE00
FF1F19FE00
FF1F18FE00
FF1F18FE00
FF1F98FC00
7F1C18F800
3F1018F000
1FC019E000
0FC01FC000
07FFFF0000
01FFF80000
00003F0000
00001F8000
00001F8000
00000F8000
0000070000
0000000000
0000000000
0000000000
ENDCHAR

STARTCHAR H
ENCODING 72
SWIDTH 1114 0
DWIDTH 39 0
BBX 39 37 0 -9
BITMAP
0000000000
0000000000
2060401800
7060C03800
F0F0C07C00
FFFFC3FF80
FFFFCFFFC0
07FEC1FF00
07FCC1FF00
07FCC1FF00
07FCC1FF00
1FFCC1FF00
1FFCC1FF00
1FFFFFFF00
1FFFFFFF00
3FFFFFFF00
3FFCC1FF00
23FCC1FF00
03FCC1FF00
03FCC1FF00
03FCC1FF00
03FCC1FF00
03FFC1FF00
07FFC1FFE0
0FFFC7FFE0
1FFEC7FF00
3FFCC07C00
7838C01800
6000F80000
0000F80000
0000F80000
0000F80000
0000780000
0000000000
0000000000
0000000000
0000000000
ENDCHAR

STARTCHAR I
ENCODING 73
SWIDTH 600 0
DWIDTH 21 0
BBX 21 37 0 -9
BITMAP
000000
000000
000000
000000
786000
F8F800
F9FF00
FFFF00
7FFE00
13FE00
13FE00
13FE00
1BFE00
1FFE00
1FFE00
1FFE00
1FFE00
1BFE00
13FE00
03FE00
03FE00
03FE00
03FE00
03FE00
07FE00
1FFF80
1FFC00
00F000
006000
000000
000000
000000
000000
000000
000000
000000
000000
ENDCHAR

STARTCHAR J
ENCODING 74
SWIDTH 771 0
DWIDTH 27 0
BBX 27 37 0 -9
BITMAP
00000000
00000000
00000000
00000000
07878000
0FC7C000
0F9FF800
0FFFF000
07FFE000
001FE000
001FE000
001FE000
001FE000
00FFE000
00FFE000
00FFE000
01FFE000
01DFE000
011FE000
001FE000
381FE000
7C1FE000
FE1FE000
FE1FE000
FE1FF000
FC1FFC00
F83FC000
707F0000
3FF80000
1FE00000
00000000
00000000
00000000
00000000
00000000
00000000
00000000
ENDCHAR

STARTCHAR K
ENCODING 75
SWIDTH 1057 0
DWIDTH 37 0
BBX 37 37 0 -9
BITMAP
0000000000
0000000000
0000000000
0000C03000
70E0C07000
F1F0C0FE00
FFFFC7FE00
FFFEC3FC00
0BFCC1F800
0BFCC1F000
0BFCC1E000
0BFCC1C000
0BFCC38000
1FFCC70000
1FFCFC0000
1FFFF80000
1FFFFC0000
1FFCDF0000
3BFCC78000
33FCC7E000
03FCC7F000
03FCC3F800
03FFC3FC00
03FFC3FE00
07FFC3FF00
0FFEC3FF80
1FFEC1FE00
3E7EC07800
300CC00000
2000C00000
0000F80000
0000DC0000
0000FC0000
0000780000
0000000000
0000000000
0000000000
ENDCHAR

STARTCHAR L
ENCODING 76
SWIDTH 828 0
DWIDTH 29 0
BBX 29 37 0 -9
BITMAP
00000000
00000000
00000000
00000000
0003E000
F01ED800
F0FCCE00
FFFCCF00
7FFCCF80
13FCDFC0
13FCDF00
13FCCE00
13FCC000
1FFCC000
1FFCC000
1FFCC000
1FFCC000
3FFCC000
33FCC000
63FCC000
03FCC000
03FFC000
03FFFF80
03FFFF80
07FFFF00
0FFFFE00
1F83FC00
3C01F800
7001C000
4000C000
0000C000
0000F800
0000DC00
0000F800
00007000
00000000
00000000
ENDCHAR

STARTCHAR M
ENCODING 77
SWIDTH 1228 0
DWIDTH 43 0
BBX 43 37 0 -9
BITMAP
000000000000
000000000000
000000000000
000000000000
700018018000
F0381803C000
F87C1807E000
FFFFF87FF800
7FFFE87FFE00
05FFC83FFE00
04FFC83FF800
04FFC83FF800
04FFC83FF800
04FFF87FF800
07DFF86FF800
07DFF8EFF800
07CFF8CFF800
07CFF8CFF800
0CC7F98FF800
0CC7FD8FF800
00C3FF0FF800
00C3FF0FF800
00C1FF0FF800
01C1FF0FF800
01E1FF0FF800
07F1FF1FFC00
1FF9FFBFFE00
0FE0FE03E000
01C038018000
008038000000
00001B000000
00001F000000
00001F000000
00000F000000
000000000000
000000000000
000000000000
ENDCHAR

STARTCHAR N
ENCODING 78
SWIDTH 1057 0
DWIDTH 37 0
BBX 37 37 0 -9
BITMAP
0000000000
0000000000
0000000000
7030301C00
7830301C00
F87C30FFC0
FFFFB0FF00
7FFFF03E00
05FFF01C00
05FFF01C00
05FFF01C00
05FFF81C00
07DFFC1C00
07CFFE1C00
07C7FF1C00
0FC7FF9C00
0DC3FFDC00
01C1FFFC00
01C0FFFC00
01C07FFC00
01C07FFC00
01C07FFE00
01C07FFE00
01E077F800
07FC73F800
3FFC71F000
1FE070F000
01C0707000
0000702000
00007C0000
00003E0000
00003E0000
00001C0000
0000000000
0000000000
0000000000
0000000000
ENDCHAR

STARTCHAR O
ENCODING 79
SWIDTH 1028 0
DWIDTH 36 0
BBX 36 37 0 -9
BITMAP
0000000000
0000000000
0000000000
0000000000
000CFF0000
007DDF8000
01FB9FE000
03FF9BF000
0FFF9BF800
1FCF99FC00
3F8F99FC00
3F8F99FE00
7F8F99FE00
7F8F98FE00
FF8F98FF00
FF0F98FF00
FF0F90FF00
FF0F90FF00
FF0F90FE00
FF0F90FE00
FF0F91FC00
7F0F91F800
3F8E11F000
3F9013E000
0FE01FC000
07E01F8000
01FFFE0000
007FF80000
00003E0000
00003E0000
00003F0000
00001E0000
0000000000
0000000000
0000000000
0000000000
0000000000
ENDCHAR

STARTCHAR P
ENCODING 80
SWIDTH 971 0
DWIDTH 34 0
BBX 34 37 0 -9
BITMAP
0000000000
0000000000
0000000000
0000000000
7803FF0000
F81FC7E000
F8FE41F000
FFFC41F800
7FFC40FC00
13FC40FE00
13FC40FE00
13FC70FE00
1FFC70FE00
1FFC61FC00
1FFC7FF800
3FFC5FF000
3FFC4FE000
33FC400000
23FC400000
03FC400000
03FC400000
03FC400000
03FC400000
03FC400000
0FFFC00000
3FFCC00000
07F0C00000
01E0C00000
0040C00000
0000F00000
0000F80000
0000F80000
0000F80000
0000700000
0000000000
0000000000
0000000000
ENDCHAR

STARTCHAR Q
ENCODING 81
SWIDTH 1028 0
DWIDTH 36 0
BBX 36 37 0 -9
BITMAP
0000000000
0000000000
0000000000
0000000000
001C7E0000
0079FF8000
01F3FFE000
07E7F3F000
0FFFB3F800
1FFFB1FC00
3FDFB1FC00
3F9FB1FE00
7F9FB0FE00
7F9FB0FE00
FF9FB0FE00
FF9FB0FF00
FF9FB0FF00
FF9FB0FF00
FF9FB0FE00
FF9FB0FE00
FF9FB1FC00
7F9F31F800
3F9C33F000
1F9033E000
0FC03FC000
07E03F0000
01FFFF0000
003FFFF000
001FFFE000
003CFF8000
00E01F0000
0180060000
0000000000
0000000000
0000000000
0000000000
0000000000
ENDCHAR

STARTCHAR R
ENCODING 82
SWIDTH 1028 0
DWIDTH 36 0
BBX 36 37 0 -9
BITMAP
0000000000
0000000000
0000000000
0000000000
7000000000
FC007E0000
FC0FFFC000
FC7E43F000
7FFE43FC00
07FC41FC00
03FC41FC00
03FC41FC00
0FFC41FC00
0FFC43F800
1FFC43F000
1FFFFFC000
1FFFFE0000
1FFCDF0000
33FCC7C000
03FCC7E000
03FCC7F000
03FCC3F000
03FCC3F800
03FCC3FC00
07FFC3FC00
3FFFC3FF00
3FFDC7FF00
01F1C0FC00
00E1C03000
0001C00000
0001F80000
0001F80000
0001F80000
0000F80000
0000700000
0000000000
0000000000
ENDCHAR

STARTCHAR S
ENCODING 83
SWIDTH 1000 0
DWIDTH 35 0
BBX 35 37 0 -9
BITMAP
0000000000
0000000000
0000000000
0000000000
003E000000
01FFE00000
070FFC1800
0E03FFFC00
1E007FFE00
1F003F3C00
1F801E1800
1FF81C0000
1FFFF80000
1FFFFC0000
1FFFFF8000
0FFFFFE000
07FFFFF000
01FFFFF800
007FFFFC00
000FFFFC00
00061FFC00
01FE03FC00
0FFF80FC00
3FFFE07C00
7FFFF87800
E07FFC7000
C0C7FFE000
C181FF8000
FF01F00000
3C00000000
0000000000
0000000000
0000000000
0000000000
0000000000
0000000000
0000000000
ENDCHAR

STARTCHAR T
ENCODING 84
SWIDTH 942 0
DWIDTH 33 0
BBX 33 37 0 -9
BITMAP
0000000000
0000000000
0000000000
0000000000
01F07C1000
7FF9EFF800
FFBFCFF800
FF3FC7F800
FF3FC7F800
FE3FC7F800
FE3FC7F800
FCBFC7F800
F9FFC7F800
F9FFC7F800
F1FFC6F800
E1FFC67800
03FFC60000
073FC60000
023FC60000
003FC60000
003FC60000
003FC60000
003FC60000
003FC60000
007FC40000
01FFFC0000
01FFCC0000
001F8C0000
00060C0000
00000C0000
00000D8000
00000DC000
00000FC000
0000078000
0000030000
0000000000
0000000000
ENDCHAR

STARTCHAR U
ENCODING 85
SWIDTH 1028 0
DWIDTH 36 0
BBX 36 37 0 -9
BITMAP
0000000000
0000000000
0000000000
3030301000
7870303800
F8F8307E00
FFFE33FF80
3FFF31FF00
0BFE307C00
0BFE303C00
0BFE303800
0BFE303800
0FFE303800
0FFE313800
0FFE333800
1FFE3FF800
1FFE3F1800
3BFE301800
0BFE301800
0BFE301800
0BFE301800
0BFE301800
0BFE303800
07FE303C00
07FE30F000
00FF31C000
001FFF0000
0007FC0000
0000700000
00007E0000
00007E0000
00003E0000
00001C0000
0000000000
0000000000
0000000000
0000000000
ENDCHAR

STARTCHAR V
ENCODING 86
SWIDTH 1057 0
DWIDTH 37 0
BBX 37 37 0 -9
BITMAP
0000000000
0000000000
0000000000
0000000000
3180181800
71C0183800
F3F0187C00
FFFF1BFF80
7FFF187F80
03FF187C00
01FF187000
01FF186000
00FF98E000
00FFD8C000
01FFF98000
01FFFB0000
01FFFB0000
01FFFE0000
018FFE0000
0307FE0000
0003FE0000
0003FE0000
0003FE0000
0003FE0000
0003FE0000
000FFFC000
000FFF0000
0000F80000
0000380000
0000380000
00003E0000
00003F0000
00003F0000
0000000000
0000000000
0000000000
0000000000
ENDCHAR

STARTCHAR W
ENCODING 87
SWIDTH 1257 0
DWIDTH 44 0
BBX 44 37 0 -9
BITMAP
000000000000
000000000000
000000000000
000000000000
000000000000
60C003800C00
F1E007801C00
E3F83FF8FE00
FFFEFFF8FF80
7FFC3FF07E00
03FC1FF03800
03FC1FF03800
03FC1FF03000
07FE1FF03000
07FE1FF86000
07FE1FF86000
07FE3FFC6000
0FFF3FFCC000
0CFF7FFCC000
00FF7FFEC000
007FFDFF8000
007FDDFF8000
007FDDFF8000
007F9CFF8000
007F9CFFC000
00FF9DFFC000
00FF9DFE0000
000E1C1C0000
00041C080000
00001C000000
00001F000000
00001F800000
00000F800000
000007000000
000000000000
000000000000
000000000000
ENDCHAR

STARTCHAR X
ENCODING 88
SWIDTH 942 0
DWIDTH 33 0
BBX 33 37 0 -9
BITMAP
0000000000
0000000000
0000000000
0000000000
0000000000
7870061000
F07C07F000
FFFF87F000
7FFF8FE000
01FF9FC000
00FF9F8000
007FB00000
003FE00000
003FE00000
007FFE0000
00FFFE0000
00FFFC0000
00CFF80000
000FF80000
000FFC0000
000FFC0000
0019FE0000
0039FF0000
03F8FF8000
0FFCFFF800
1FFCFFFC00
7FF81FE000
71F00F8000
E060060000
8000000000
0000000000
0000000000
0000000000
0000000000
0000000000
0000000000
0000000000
ENDCHAR

STARTCHAR Y
ENCODING 89
SWIDTH 1057 0
DWIDTH 37 0
BBX 37 37 0 -9
BITMAP
0000000000
0000000000
0000000000
0000000000
3180181800
71C0183800
F3F0187C00
FFFF1BFF80
7FFF187F80
03FF187C00
01FF187000
01FF186000
00FF98E000
00FFD8C000
01FFF98000
01FFFB0000
01FFFB0000
01FFFE0000
018FFE0000
0307FE0000
0003FE0000
0003FE0000
0003FE0000
0003FE0000
0003FE0000
000FFFC000
000FFF0000
0000F80000
0000380000
0000380000
00003E0000
00003F0000
00003F0000
00001F0000
00000E0000
0000000000
0000000000
ENDCHAR

STARTCHAR Z
ENCODING 90
SWIDTH 942 0
DWIDTH 33 0
BBX 33 37 0 -9
BITMAP
0000000000
0000000000
0000000000
0000000000
0400030000
0600070000
0F803F0000
3FFFFF8000
3FE67FE000
1F067FE000
0E07FFC000
0E07FF8000
0E07FF0000
0C0FFC0000
001FF80000
003FF00000
007FE08000
00FFC08000
03FF808000
07FF01C000
0FFE01C000
1FFE03C000
3FFE07E000
7FE60FF800
FFFFFFF800
FFFFFFE000
0FFE03C000
0F0E00C000
060E000000
000F800000
000FC00000
0007C00000
0003800000
0000000000
0000000000
0000000000
0000000000
ENDCHAR

STARTCHAR a
ENCODING 97
SWIDTH 685 0
DWIDTH 24 0
BBX 24 37 0 -9
BITMAP
000000
000000
000000
000000
000000
000000
000000
000000
000000
000000
000000
000000
000000
783800
787C00
F9FFC0
FFFFC0
783FC0
381F80
0FFF80
07FF80
FE1F80
FE1F80
FE1F80
FFFF80
FFFFE0
FE1F00
180400
000000
000000
000000
000000
000000
000000
000000
000000
000000
ENDCHAR

STARTCHAR b
ENCODING 98
SWIDTH 714 0
DWIDTH 25 0
BBX 25 37 0 -9
BITMAP
00000000
00000000
00000000
00000000
00000000
0E000000
3F800000
FF800000
FF800000
3F800000
3F800000
3F800000
3F800000
3F860000
3F8E0000
3F9F8000
3FFFE000
3F0FE000
3F07E000
3F07E000
3F07E000
3F07E000
3F07E000
3F87E000
3FE7E000
7FFFE000
03FC0000
00700000
00000000
00000000
00000000
00000000
00000000
00000000
00000000
00000000
00000000
ENDCHAR

STARTCHAR c
ENCODING 99
SWIDTH 571 0
DWIDTH 20 0
BBX 20 37 0 -9
BITMAP
000000
000000
000000
000000
000000
000000
000000
000000
000000
000000
000000
000000
000000
007000
00F800
07FC00
FE7C00
FE3800
FE3800
FE3000
FE0000
FE0000
FE0000
FE0000
FF8000
FFF800
0FE000
038000
000000
000000
000000
000000
000000
000000
000000
000000
000000
ENDCHAR

STARTCHAR d
ENCODING 100
SWIDTH 685 0
DWIDTH 24 0
BBX 24 37 0 -9
BITMAP
000000
000000
000000
000000
01E000
03F000
07FC00
0FFFC0
00FFC0
003FC0
001FC0
001FC0
001FC0
079FC0
0F9FC0
7FFF80
7F1F80
7E0F80
7C0F80
7C0F80
7C0F80
7C0F80
7E0F80
7F0F80
FFFFC0
1FFF00
03F000
00C000
000000
000000
000000
000000
000000
000000
000000
000000
000000
ENDCHAR

STARTCHAR e
ENCODING 101
SWIDTH 657 0
DWIDTH 23 0
BBX 23 37 0 -9
BITMAP
000000
000000
000000
000000
000000
000000
000000
000000
000000
000000
000000
000000
000000
00E000
01E000
0FF000
FFF800
7EFE00
7E7F80
7E3FC0
7E3F00
7FE000
7F0000
7F0000
7FE000
FFFF80
0FFE00
01E000
000000
000000
000000
000000
000000
000000
000000
000000
000000
ENDCHAR

STARTCHAR f
ENCODING 102
SWIDTH 571 0
DWIDTH 20 0
BBX 20 37 0 -9
BITMAP
000000
000000
000000
000000
003000
007800
01FC00
7FFC00
3FB800
3FB800
3F9000
3F8000
3F9000
3FF000
FFF000
FFF000
FFE000
3F8000
3F8000
3F8000
3F8000
3F8000
3F8000
3F8000
7FF800
7FF800
07C000
018000
000000
000000
000000
000000
000000
000000
000000
000000
000000
ENDCHAR

STARTCHAR g
ENCODING 103
SWIDTH 657 0
DWIDTH 23 0
BBX 23 37 0 -9
BITMAP
000000
000000
000000
000000
000000
000000
000000
000000
000000
000000
000000
000000
000000
000000
007000
00F800
0FFF00
7FFFE0
7F3FE0
7F1FE0
7F0FE0
7F0FC0
7F0FC0
7F0FC0
7F0FC0
7F0FC0
FFFFC0
1FCFE0
038FE0
3807E0
7F03E0
FB83E0
F807C0
781F80
3FFE00
0FF800
000000
ENDCHAR

STARTCHAR h
ENCODING 104
SWIDTH 685 0
DWIDTH 24 0
BBX 24 37 0 -9
BITMAP
000000
000000
000000
000000
000000
000000
1C0000
1E0000
7F8000
FF0000
7F0000
7F0000
7F0000
7F0000
7F1C00
7F3E00
7FFFC0
7FFF80
7F3F80
7F1F80
7E1F80
7E1F80
7E1F80
7E1F80
7E1F80
7F1FE0
FF0FC0
3C0300
000000
000000
000000
000000
000000
000000
000000
000000
000000
ENDCHAR

STARTCHAR i
ENCODING 105
SWIDTH 400 0
DWIDTH 14 0
BBX 14 37 0 -9
BITMAP
0000
0000
0000
0000
0000
1C00
1C00
7F00
FF00
3E00
1C00
0000
0000
1800
3C00
7F00
FF00
7E00
7E00
7E00
7E00
7E00
7E00
7E00
7E00
FF00
7F00
1800
0000
0000
0000
0000
0000
0000
0000
0000
0000
ENDCHAR

STARTCHAR j
ENCODING 106
SWIDTH 428 0
DWIDTH 15 0
BBX 15 37 0 -9
BITMAP
0000
0000
0000
0000
0300
0780
0FC0
3FE0
0F80
0300
0000
0000
0700
0F00
3FC0
7FC0
1F80
1F80
1F80
1F80
1F80
1F80
1F80
1F80
1F80
7F80
FF80
FF80
FFC0
DE00
7800
0000
0000
0000
0000
0000
0000
ENDCHAR

STARTCHAR k
ENCODING 107
SWIDTH 714 0
DWIDTH 25 0
BBX 25 37 0 -9
BITMAP
00000000
00000000
00000000
00000000
00000000
0E000000
1E000000
FF800000
FFC00000
3F800000
3F800000
3F800000
3F800000
3F800000
3F830000
3F078000
3F1FC000
3F0FC000
3F0F0000
3F0C0000
3FF80000
3F3C0000
3F0F0000
3F0F8000
3F0FC000
3F0FE000
FF87F000
1E038000
00000000
00000000
00000000
00000000
00000000
00000000
00000000
00000000
00000000
ENDCHAR

STARTCHAR l
ENCODING 108
SWIDTH 400 0
DWIDTH 14 0
BBX 14 37 0 -9
BITMAP
0000
0000
0000
0000
0000
1E00
3F00
FF80
3F00
3F00
3F00
3F00
3F00
3F00
3F00
3F00
3F00
3F00
3F00
3F00
3F00
3F00
3F00
3F00
3F00
7F00
7F80
0C00
0000
0000
0000
0000
0000
0000
0000
0000
0000
ENDCHAR

STARTCHAR m
ENCODING 109
SWIDTH 1000 0
DWIDTH 35 0
BBX 35 37 0 -9
BITMAP
0000000000
0000000000
0000000000
0000000000
0000000000
0000000000
0000000000
0000000000
0000000000
0000000000
0000000000
0000000000
0000000000
0C01000000
1C03806000
7F07C0F000
FFFFFFFC00
7F0FE3F800
3F0FE1F800
3F0FC1F800
3F0FC1F800
3F0FC1F800
3F0FC1F800
3F0FC1F800
7F0FC1F800
7F9FE3FC00
1C0380F800
0000006000
0000000000
0000000000
0000000000
0000000000
0000000000
0000000000
0000000000
0000000000
0000000000
ENDCHAR

STARTCHAR n
ENCODING 110
SWIDTH 685 0
DWIDTH 24 0
BBX 24 37 0 -9
BITMAP
000000
000000
000000
000000
000000
000000
000000
000000
000000
000000
000000
000000
000000
000000
1C0300
3E0700
FFFFC0
7F1FE0
7F1FC0
7E1FC0
7E1FC0
7E1FC0
7E1FC0
7E1FC0
7E1FC0
FF1FE0
3E0FE0
080300
000000
000000
000000
000000
000000
000000
000000
000000
000000
ENDCHAR

STARTCHAR o
ENCODING 111
SWIDTH 628 0
DWIDTH 22 0
BBX 22 37 0 -9
BITMAP
000000
000000
000000
000000
000000
000000
000000
000000
000000
000000
000000
000000
000000
000000
01C000
03E000
0FFF00
FDFF00
FCFF00
FC3F00
FC1F00
FC1F00
FC1F00
FE1F00
FF1F00
FFFF00
07F000
038000
000000
000000
000000
000000
000000
000000
000000
000000
000000
ENDCHAR

STARTCHAR p
ENCODING 112
SWIDTH 600 0
DWIDTH 21 0
BBX 21 37 0 -9
BITMAP
000000
000000
000000
000000
000000
000000
000000
000000
000000
000000
000000
000000
000000
000000
000000
180300
1C0F80
7FFFE0
FF1FC0
7F0FC0
3F0FC0
3F0FC0
3F0FC0
3F0FC0
3F0FC0
3F3FC0
3F3FC0
3F0700
3F0200
3F0000
7F0000
7E0000
1C0000
000000
000000
000000
000000
ENDCHAR

STARTCHAR q
ENCODING 113
SWIDTH 600 0
DWIDTH 21 0
BBX 21 37 0 -9
BITMAP
000000
000000
000000
000000
000000
000000
000000
000000
000000
000000
000000
000000
000000
000000
00C000
03F000
1FFE00
FCFF80
FC7F80
7C1F80
7C1F80
7C1F00
7C1F00
7C1F00
FE1F00
7F1F00
1E1F00
0C1F00
001F00
003F80
007F80
000E00
000000
000000
000000
000000
000000
ENDCHAR

STARTCHAR r
ENCODING 114
SWIDTH 571 0
DWIDTH 20 0
BBX 20 37 0 -9
BITMAP
000000
000000
000000
000000
000000
000000
000000
000000
000000
000000
000000
000000
000000
000000
000000
181800
383800
FFFE00
7F3C00
7E1800
7E1000
7E0000
7E0000
7E0000
3E0000
3E0000
7F0000
1C0000
000000
000000
000000
000000
000000
000000
000000
000000
000000
ENDCHAR

STARTCHAR s
ENCODING 115
SWIDTH 657 0
DWIDTH 23 0
BBX 23 37 0 -9
BITMAP
000000
000000
000000
000000
000000
000000
000000
000000
000000
000000
000000
000000
000000
000000
0070E0
01FFC0
FFFF80
7EFF00
7E7C00
7E0000
7FF000
7FDFC0
001FC0
0E1F80
3F9F80
FFFF80
0FFF80
01C000
000000
000000
000000
000000
000000
000000
000000
000000
000000
ENDCHAR

STARTCHAR t
ENCODING 116
SWIDTH 457 0
DWIDTH 16 0
BBX 16 37 0 -9
BITMAP
0000
0000
0000
0000
0000
0000
0000
0000
0000
0300
0300
0F00
3F00
3F00
3F00
3FC0
FFE0
FFE0
3F00
3F00
3F00
3F00
3F00
3F00
3F00
7F00
7FE0
0F80
0000
0000
0000
0000
0000
0000
0000
0000
0000
ENDCHAR

STARTCHAR u
ENCODING 117
SWIDTH 628 0
DWIDTH 22 0
BBX 22 37 0 -9
BITMAP
000000
000000
000000
000000
000000
000000
000000
000000
000000
000000
000000
000000
000000
000000
180E00
381F00
7E7F80
FE3F80
FC3F00
FC3F00
FC3F00
FC3F00
FC3F00
FC3F00
FC3F00
FFFF00
FC1E00
300000
000000
000000
000000
000000
000000
000000
000000
000000
000000
ENDCHAR

STARTCHAR v
ENCODING 118
SWIDTH 628 0
DWIDTH 22 0
BBX 22 37 0 -9
BITMAP
000000
000000
000000
000000
000000
000000
000000
000000
000000
000000
000000
000000
000000
000000
000000
380E00
7C3F00
FE3F80
7E1C00
3E1800
3E1800
1F0000
1F0000
0F8000
0FE000
0FE000
07C000
038000
000000
000000
000000
000000
000000
000000
000000
000000
000000
ENDCHAR

STARTCHAR w
ENCODING 119
SWIDTH 942 0
DWIDTH 33 0
BBX 33 37 0 -9
BITMAP
0000000000
0000000000
0000000000
0000000000
0000000000
0000000000
0000000000
0000000000
0000000000
0000000000
0000000000
0000000000
0000000000
0000000000
0000000000
1807018000
3C0F03C000
FF3FC7F000
FF8FC38000
3F8FC30000
3F8FC20000
1F8FC00000
0F87E00000
0FC3E00000
0FF3F80000
0FF3FC0000
0FF3FC0000
01C0600000
0000000000
0000000000
0000000000
0000000000
0000000000
0000000000
0000000000
0000000000
0000000000
ENDCHAR

STARTCHAR x
ENCODING 120
SWIDTH 714 0
DWIDTH 25 0
BBX 25 37 0 -9
BITMAP
00000000
00000000
00000000
00000000
00000000
00000000
00000000
00000000
00000000
00000000
00000000
00000000
00000000
00000000
0C060000
1E0F0000
FFDFC000
7FCE0000
1FCC0000
07F00000
03F00000
03F80000
03FC0000
0C7E0000
1C7F8000
7C7FE000
FE3FC000
18030000
00000000
00000000
00000000
00000000
00000000
00000000
00000000
00000000
00000000
ENDCHAR

STARTCHAR y
ENCODING 121
SWIDTH 657 0
DWIDTH 23 0
BBX 23 37 0 -9
BITMAP
000000
000000
000000
000000
000000
000000
000000
000000
000000
000000
000000
000000
000000
000000
1C0700
3E0F80
FF1FE0
FF0FE0
7F0FC0
7F0FC0
7F0FC0
7F0FC0
3F0FC0
3F0FC0
1F0FC0
1F0FC0
1FFF80
3FFE00
600F80
C03FC0
C1C3E0
7F03C0
3C0000
000000
000000
000000
000000
ENDCHAR

STARTCHAR z
ENCODING 122
SWIDTH 657 0
DWIDTH 23 0
BBX 23 37 0 -9
BITMAP
000000
000000
000000
000000
000000
000000
000000
000000
000000
000000
000000
000000
000000
000000
180C00
3FFC00
7F7F80
387F00
30FE00
01F800
07F000
0FE000
1FC180
3F8180
7F0380
FF9FC0
3E0780
080100
000000
000000
000000
000000
000000
000000
000000
000000
000000
ENDCHAR
ENDFONT
